<svg xmlns="http://www.w3.org/2000/svg" viewBox="0 0 320 220" width="320" height="220">
  <style>
    text { font-family: 'Segoe UI', Arial, sans-serif; }
  </style>
  <rect width="320" height="220" rx="8" fill="#1a1a2e"/>
  
    <line x1="160" y1="10" x2="160" y2="30" stroke="#f59e0b" stroke-width="2.5"/>
    <rect x="60" y="30" width="200" height="130" rx="3" fill="none" stroke="#f59e0b" stroke-width="2.5"/>
    <text x="160" y="52" text-anchor="middle" fill="#f59e0b" font-size="13" font-weight="bold">MCC-1</text>
    <line x1="160" y1="60" x2="160" y2="70" stroke="#f59e0b" stroke-width="2"/>
    <line x1="90" y1="70" x2="230" y2="70" stroke="#f59e0b" stroke-width="2.5"/>
    <rect x="78" y="80" width="42" height="60" rx="2" fill="none" stroke="#f59e0b" stroke-width="1.5"/>
    <rect x="130" y="80" width="42" height="60" rx="2" fill="none" stroke="#f59e0b" stroke-width="1.5"/>
    <rect x="182" y="80" width="42" height="60" rx="2" fill="none" stroke="#f59e0b" stroke-width="1.5"/>
    <line x1="99" y1="70" x2="99" y2="80" stroke="#f59e0b" stroke-width="1.5"/>
    <line x1="151" y1="70" x2="151" y2="80" stroke="#f59e0b" stroke-width="1.5"/>
    <line x1="203" y1="70" x2="203" y2="80" stroke="#f59e0b" stroke-width="1.5"/>
    <text x="99" y="100" text-anchor="middle" fill="#e2e8f0" font-size="9">Starter</text>
    <text x="151" y="100" text-anchor="middle" fill="#e2e8f0" font-size="9">Starter</text>
    <text x="203" y="100" text-anchor="middle" fill="#e2e8f0" font-size="9">Starter</text>
    <circle cx="99" cy="125" r="10" fill="none" stroke="#f59e0b" stroke-width="1.5"/>
    <text x="99" y="129" text-anchor="middle" fill="#f59e0b" font-size="10">M</text>
    <circle cx="151" cy="125" r="10" fill="none" stroke="#f59e0b" stroke-width="1.5"/>
    <text x="151" y="129" text-anchor="middle" fill="#f59e0b" font-size="10">M</text>
    <circle cx="203" cy="125" r="10" fill="none" stroke="#f59e0b" stroke-width="1.5"/>
    <text x="203" y="129" text-anchor="middle" fill="#f59e0b" font-size="10">M</text>
  
  <text x="160" y="208" text-anchor="middle" fill="#94a3b8" font-size="11">Motor Control Center (MCC)</text>
</svg>