<svg xmlns="http://www.w3.org/2000/svg" viewBox="0 0 300 210" width="300" height="210">
  <style>
    text { font-family: 'Segoe UI', Arial, sans-serif; }
  </style>
  <rect width="300" height="210" rx="8" fill="#1a1a2e"/>
  
    <line x1="150" y1="10" x2="150" y2="35" stroke="#f59e0b" stroke-width="2.5"/>
    <rect x="80" y="35" width="140" height="120" rx="3" fill="none" stroke="#f59e0b" stroke-width="2.5"/>
    <text x="150" y="55" text-anchor="middle" fill="#f59e0b" font-size="12" font-weight="bold">PNL-1A</text>
    <text x="150" y="68" text-anchor="middle" fill="#e2e8f0" font-size="9">208/120V, 3Φ, 4W</text>
    <line x1="150" y1="78" x2="150" y2="145" stroke="#f59e0b" stroke-width="2"/>
    <line x1="135" y1="85" x2="150" y2="85" stroke="#f59e0b" stroke-width="1.5"/>
    <line x1="135" y1="95" x2="150" y2="95" stroke="#f59e0b" stroke-width="1.5"/>
    <line x1="135" y1="105" x2="150" y2="105" stroke="#f59e0b" stroke-width="1.5"/>
    <line x1="135" y1="115" x2="150" y2="115" stroke="#f59e0b" stroke-width="1.5"/>
    <line x1="135" y1="125" x2="150" y2="125" stroke="#f59e0b" stroke-width="1.5"/>
    <line x1="150" y1="85" x2="165" y2="85" stroke="#f59e0b" stroke-width="1.5"/>
    <line x1="150" y1="95" x2="165" y2="95" stroke="#f59e0b" stroke-width="1.5"/>
    <line x1="150" y1="105" x2="165" y2="105" stroke="#f59e0b" stroke-width="1.5"/>
    <line x1="150" y1="115" x2="165" y2="115" stroke="#f59e0b" stroke-width="1.5"/>
    <line x1="150" y1="125" x2="165" y2="125" stroke="#f59e0b" stroke-width="1.5"/>
    <text x="120" y="90" text-anchor="end" fill="#94a3b8" font-size="8">1</text>
    <text x="120" y="100" text-anchor="end" fill="#94a3b8" font-size="8">3</text>
    <text x="120" y="110" text-anchor="end" fill="#94a3b8" font-size="8">5</text>
    <text x="180" y="90" fill="#94a3b8" font-size="8">2</text>
    <text x="180" y="100" fill="#94a3b8" font-size="8">4</text>
    <text x="180" y="110" fill="#94a3b8" font-size="8">6</text>
  
  <text x="150" y="198" text-anchor="middle" fill="#94a3b8" font-size="11">Panelboard</text>
</svg>